<?xml version="1.0" standalone="no"?>
<!DOCTYPE svg PUBLIC "-//W3C//DTD SVG 20010904//EN"
 "http://www.w3.org/TR/2001/REC-SVG-20010904/DTD/svg10.dtd">
<svg version="1.0" xmlns="http://www.w3.org/2000/svg"
 width="748.000000pt" height="748.000000pt" viewBox="0 0 748.000000 748.000000"
 preserveAspectRatio="xMidYMid meet">
<metadata>
Created by potrace 1.14, written by Peter Selinger 2001-2017
</metadata>
<g transform="translate(0.000000,748.000000) scale(0.100000,-0.100000)"
fill="#000000" stroke="none">
<path d="M3356 6435 c-9 -13 -16 -26 -16 -29 0 -3 -14 -35 -32 -73 -18 -37
-33 -70 -33 -73 -2 -5 -49 -107 -118 -250 -22 -47 -42 -89 -43 -95 -1 -5 -30
-68 -63 -139 -34 -71 -63 -133 -64 -138 -2 -12 39 -35 173 -97 52 -24 108 -50
124 -57 16 -8 35 -14 42 -14 7 0 14 -4 16 -8 2 -4 32 -20 68 -36 36 -16 96
-44 134 -62 37 -19 74 -34 81 -34 7 0 15 -4 17 -8 2 -4 32 -20 67 -36 35 -16
109 -50 165 -76 56 -26 121 -57 146 -68 76 -34 267 -123 415 -193 33 -15 127
-59 210 -97 l149 -69 59 126 c32 69 77 164 98 209 21 46 39 85 39 87 0 2 22
50 49 107 111 235 141 300 141 311 0 6 -6 4 -12 -5 -7 -8 -33 -28 -58 -45
-100 -65 -194 -91 -311 -88 -228 7 -409 162 -466 400 -9 38 -11 186 -2 223 11
50 -7 58 -40 19 -42 -50 -68 -74 -115 -107 -43 -29 -125 -68 -156 -75 -8 -2
-33 -8 -55 -13 -97 -26 -244 0 -347 61 -138 82 -235 252 -241 420 -1 26 -2 47
-3 47 -1 0 -9 -11 -18 -25z"/>
<path d="M2535 5294 c-33 -13 -69 -28 -80 -33 -196 -86 -433 -199 -445 -211
-3 -3 -39 -23 -80 -44 -166 -87 -503 -299 -639 -403 -9 -6 -54 -40 -101 -74
-47 -34 -87 -65 -90 -68 -3 -3 -21 -18 -40 -33 -79 -59 -82 -64 -75 -131 3
-34 10 -78 15 -97 5 -19 10 -56 12 -82 l3 -47 30 24 c17 14 80 59 141 100 179
122 358 206 549 259 89 25 117 31 185 42 19 2 46 7 60 10 28 5 197 16 250 16
51 -1 217 -11 248 -16 15 -2 47 -7 72 -11 25 -3 87 -15 139 -27 76 -16 92 -23
79 -32 -9 -6 -24 -17 -35 -24 -10 -7 -63 -44 -118 -82 -55 -39 -107 -74 -115
-80 -85 -57 -321 -204 -340 -213 -8 -4 -28 -16 -45 -26 -92 -57 -300 -171
-311 -171 -8 0 -14 -3 -14 -8 0 -4 -54 -34 -120 -67 -66 -33 -120 -66 -120
-73 0 -7 8 -29 19 -50 53 -106 116 -296 136 -412 3 -19 10 -53 15 -75 30 -137
33 -574 5 -755 -4 -26 -15 -112 -21 -165 -1 -16 -5 -41 -8 -55 -4 -14 -8 -41
-11 -60 -2 -19 -14 -78 -25 -130 -11 -52 -23 -106 -26 -120 -3 -14 -12 -52
-21 -85 -8 -33 -16 -64 -17 -70 -2 -5 -8 -28 -14 -50 -6 -22 -13 -51 -16 -65
-3 -14 -20 -76 -39 -137 -19 -62 -32 -113 -29 -113 2 0 -1 -6 -7 -13 -6 -8
-12 -22 -14 -33 -4 -23 -75 -241 -88 -269 -5 -11 -20 -54 -35 -95 -86 -246
-267 -545 -448 -739 -27 -29 -37 -45 -28 -48 7 -3 56 -34 109 -70 l97 -66 85
90 c73 76 117 123 251 272 8 9 35 41 60 71 25 30 47 57 50 60 3 3 45 55 93
115 49 61 95 118 103 128 8 9 14 21 14 26 0 5 4 11 8 13 11 4 232 298 232 308
0 5 3 10 8 12 23 10 202 302 253 413 13 28 27 53 32 56 5 3 8 8 7 10 -2 5 13
45 38 102 18 39 33 76 37 87 1 3 6 16 12 30 49 120 149 469 168 582 3 18 10
56 15 83 14 73 22 131 38 255 l7 55 526 2 526 2 -3 -202 c-3 -270 -19 -592
-38 -777 -12 -116 -16 -145 -21 -158 -5 -14 4 -24 85 -92 29 -25 58 -50 64
-55 6 -6 36 -30 66 -55 30 -25 57 -47 60 -50 3 -3 34 -30 70 -60 36 -30 67
-57 70 -60 3 -3 32 -27 65 -55 72 -60 91 -76 130 -109 36 -31 37 -32 54 -3 8
12 39 56 69 97 144 195 179 242 200 272 13 18 64 89 114 157 l91 123 -29 27
c-16 14 -65 55 -109 90 -44 36 -87 72 -96 80 -9 9 -26 23 -39 31 -25 17 -57
74 -65 116 -14 79 -24 591 -28 1509 l-2 390 32 50 c35 55 80 104 165 180 62
56 131 142 123 155 -3 4 -53 37 -113 71 -59 35 -115 68 -124 74 -9 5 -45 25
-80 44 -35 19 -97 53 -138 75 -80 44 -348 177 -440 219 -76 34 -149 67 -185
82 -16 7 -46 20 -65 28 -58 26 -229 93 -335 132 -55 20 -122 45 -150 55 -27
10 -95 33 -150 51 -55 18 -109 36 -120 40 -31 12 -129 42 -135 42 -3 0 -14 3
-25 7 -14 5 -41 0 -80 -16z m553 -947 c6 0 12 -4 12 -9 0 -4 4 -8 10 -8 34 0
313 -151 450 -244 l75 -51 -1 -290 0 -290 -508 -3 -507 -2 5 67 c3 38 8 84 11
103 3 19 8 51 10 70 12 104 71 295 101 331 8 8 14 18 14 22 0 7 32 55 75 112
68 90 202 208 225 199 8 -4 21 -7 28 -7z"/>
</g>
</svg>
